<svg width="35" height="40" viewBox="0 0 35 40" fill="none" xmlns="http://www.w3.org/2000/svg">
<path d="M10.8077 3.9771C8.10198 4.71305 5.3619 5.58311 3.74018 6.11412C3.29399 6.26021 2.98068 6.64792 2.92184 7.09096C1.54191 17.4822 4.73031 25.0666 8.53474 30.0607C10.4448 32.5681 12.5115 34.4226 14.2344 35.6418C15.0966 36.2519 15.8587 36.693 16.4576 36.9759C16.7575 37.1175 17.0027 37.213 17.189 37.2709C17.3424 37.3186 17.4213 37.3298 17.44 37.3325C17.4588 37.3298 17.5377 37.3186 17.691 37.2709C17.8773 37.213 18.1225 37.1175 18.4224 36.9759C19.0213 36.693 19.7834 36.2519 20.6456 35.6418C22.3685 34.4226 24.4352 32.5681 26.3452 30.0607C30.1497 25.0666 33.3381 17.4822 31.9582 7.09096C31.8993 6.64792 31.586 6.26021 31.1398 6.11412C29.5181 5.58311 26.778 4.71305 24.0723 3.9771C21.3059 3.22463 18.7626 2.66667 17.44 2.66667C16.1174 2.66667 13.5741 3.22463 10.8077 3.9771ZM10.1442 1.39913C12.8493 0.663358 15.7222 0 17.44 0C19.1578 0 22.0308 0.663358 24.7358 1.39913C27.5015 2.15142 30.2879 3.03652 31.927 3.57321C33.2948 4.02109 34.3294 5.23398 34.5281 6.73024C36.0146 17.9235 32.5678 26.2172 28.3873 31.705C26.3049 34.4385 24.0417 36.4759 22.1162 37.8384C21.1541 38.5192 20.2625 39.0414 19.5053 39.399C18.8057 39.7295 18.0571 40 17.44 40C16.8229 40 16.0744 39.7295 15.3747 39.399C14.6175 39.0414 13.7259 38.5192 12.7638 37.8384C10.8383 36.4759 8.57507 34.4385 6.49267 31.705C2.31215 26.2172 -1.13458 17.9235 0.351869 6.73023C0.550568 5.23398 1.58518 4.02109 2.95303 3.57321C4.59211 3.03652 7.37852 2.15142 10.1442 1.39913Z" fill="#FFE063"/>
<path d="M13.4434 9.49345V13.2671H17.1201V4.16002L4.96005 7.52002C4.32253 10.0721 3.84674 17.0186 7.04377 24.3881C7.28448 25.0712 9.28005 28.3867 11.5201 30.72C13.5916 32.8779 15.9663 34.4486 17.1201 35.04V21.1892H13.4185V26.4374C11.2471 24.8379 8.16005 21.1892 8.16005 10.24L13.4434 9.49345Z" fill="white"/>
<path d="M19.2001 35.04V4.16002L22.761 4.96002V15.4413H25.9732L25.9483 5.92002L29.2452 6.88002C29.2452 11.4867 29.4345 20.32 29.4345 20.32C28.8001 23.04 28.1601 24.48 25.9732 27.52L25.9483 19.04H22.7361V31.52L19.2001 35.04Z" fill="white"/>
</svg>
