<svg width="126" height="40" viewBox="0 0 126 40" fill="none" xmlns="http://www.w3.org/2000/svg">
<path d="M102.787 20.7L103.927 20.1876L103.595 19.45H102.787V20.7ZM105.618 27L104.478 27.5124L106.2 31.3442L106.853 27.1942L105.618 27ZM107.034 18L107.825 17.0322L106.138 15.6531L105.799 17.8058L107.034 18ZM110.337 20.7L109.546 21.6678L109.891 21.95H110.337V20.7ZM116 21.95C116.69 21.95 117.25 21.3904 117.25 20.7C117.25 20.0096 116.69 19.45 116 19.45V21.95ZM32 21.95H102.787V19.45H32V21.95ZM101.646 21.2124L104.478 27.5124L106.758 26.4876L103.927 20.1876L101.646 21.2124ZM106.853 27.1942L108.269 18.1942L105.799 17.8058L104.383 26.8058L106.853 27.1942ZM106.243 18.9678L109.546 21.6678L111.128 19.7322L107.825 17.0322L106.243 18.9678ZM110.337 21.95H116V19.45H110.337V21.95Z" fill="#FFE063"/>
<path d="M10.8077 3.9771C8.10198 4.71305 5.3619 5.58311 3.74018 6.11412C3.29399 6.26021 2.98068 6.64792 2.92184 7.09096C1.54191 17.4822 4.73031 25.0666 8.53474 30.0607C10.4448 32.5681 12.5115 34.4226 14.2344 35.6418C15.0966 36.2519 15.8587 36.693 16.4576 36.9759C16.7575 37.1175 17.0027 37.213 17.189 37.2709C17.3424 37.3186 17.4213 37.3298 17.44 37.3325C17.4588 37.3298 17.5377 37.3186 17.691 37.2709C17.8773 37.213 18.1225 37.1175 18.4224 36.9759C19.0213 36.693 19.7834 36.2519 20.6456 35.6418C22.3685 34.4226 24.4352 32.5681 26.3452 30.0607C30.1497 25.0666 33.3381 17.4822 31.9582 7.09096C31.8993 6.64792 31.586 6.26021 31.1398 6.11412C29.5181 5.58311 26.778 4.71305 24.0723 3.9771C21.3059 3.22463 18.7626 2.66667 17.44 2.66667C16.1174 2.66667 13.5741 3.22463 10.8077 3.9771ZM10.1442 1.39913C12.8493 0.663358 15.7222 0 17.44 0C19.1578 0 22.0308 0.663358 24.7358 1.39913C27.5015 2.15142 30.2879 3.03652 31.927 3.57321C33.2948 4.02109 34.3294 5.23398 34.5281 6.73024C36.0146 17.9235 32.5678 26.2172 28.3873 31.705C26.3049 34.4385 24.0417 36.4759 22.1162 37.8384C21.1541 38.5192 20.2625 39.0414 19.5053 39.399C18.8057 39.7295 18.0571 40 17.44 40C16.8229 40 16.0744 39.7295 15.3747 39.399C14.6175 39.0414 13.7259 38.5192 12.7638 37.8384C10.8383 36.4759 8.57507 34.4385 6.49267 31.705C2.31215 26.2172 -1.13458 17.9235 0.351869 6.73023C0.550568 5.23398 1.58518 4.02109 2.95303 3.57321C4.59211 3.03652 7.37852 2.15142 10.1442 1.39913Z" fill="#FFE063"/>
<path d="M13.4434 9.49346V13.2671H17.1201V4.16003L4.96005 7.52003C4.32253 10.0721 3.84674 17.0186 7.04377 24.3881C7.28448 25.0712 9.28005 28.3867 11.5201 30.72C13.5916 32.8779 15.9663 34.4486 17.1201 35.04V21.1893H13.4185V26.4374C11.2471 24.8379 8.16005 21.1893 8.16005 10.24L13.4434 9.49346Z" fill="white"/>
<path d="M19.2 35.04V4.16003L22.7609 4.96003V15.4413H25.9732L25.9483 5.92003L29.2452 6.88003C29.2452 11.4867 29.4345 20.32 29.4345 20.32C28.8 23.04 28.16 24.48 25.9732 27.52L25.9483 19.04H22.736V31.52L19.2 35.04Z" fill="white"/>
<path d="M48.386 12.931C48.518 12.931 48.635 12.982 48.737 13.084L49.691 14.119C49.163 14.773 48.512 15.274 47.738 15.622C46.97 15.97 46.046 16.144 44.966 16.144C44 16.144 43.13 15.979 42.356 15.649C41.588 15.319 40.931 14.86 40.385 14.272C39.839 13.684 39.419 12.982 39.125 12.166C38.837 11.35 38.693 10.459 38.693 9.493C38.693 8.515 38.849 7.621 39.161 6.811C39.473 5.995 39.911 5.293 40.475 4.705C41.045 4.117 41.723 3.661 42.509 3.337C43.295 3.007 44.165 2.842 45.119 2.842C46.067 2.842 46.907 2.998 47.639 3.31C48.377 3.622 49.004 4.03 49.52 4.534L48.71 5.659C48.662 5.731 48.599 5.794 48.521 5.848C48.449 5.902 48.347 5.929 48.215 5.929C48.125 5.929 48.032 5.905 47.936 5.857C47.84 5.803 47.735 5.74 47.621 5.668C47.507 5.59 47.375 5.506 47.225 5.416C47.075 5.326 46.901 5.245 46.703 5.173C46.505 5.095 46.274 5.032 46.01 4.984C45.752 4.93 45.452 4.903 45.11 4.903C44.528 4.903 43.994 5.008 43.508 5.218C43.028 5.422 42.614 5.722 42.266 6.118C41.918 6.508 41.648 6.988 41.456 7.558C41.264 8.122 41.168 8.767 41.168 9.493C41.168 10.225 41.27 10.876 41.474 11.446C41.684 12.016 41.966 12.496 42.32 12.886C42.674 13.276 43.091 13.576 43.571 13.786C44.051 13.99 44.567 14.092 45.119 14.092C45.449 14.092 45.746 14.074 46.01 14.038C46.28 14.002 46.526 13.945 46.748 13.867C46.976 13.789 47.189 13.69 47.387 13.57C47.591 13.444 47.792 13.291 47.99 13.111C48.05 13.057 48.113 13.015 48.179 12.985C48.245 12.949 48.314 12.931 48.386 12.931ZM58.9724 14.002V16H51.3494V2.986H53.7704V14.002H58.9724ZM63.131 4.912V8.521H67.685V10.384H63.131V14.065H68.909V16H60.701V2.986H68.909V4.912H63.131ZM77.9305 11.086L76.3465 6.757C76.2685 6.565 76.1875 6.337 76.1035 6.073C76.0195 5.809 75.9355 5.524 75.8515 5.218C75.7735 5.524 75.6925 5.812 75.6085 6.082C75.5245 6.346 75.4435 6.577 75.3655 6.775L73.7905 11.086H77.9305ZM82.2055 16H80.3335C80.1235 16 79.9525 15.949 79.8205 15.847C79.6885 15.739 79.5895 15.607 79.5235 15.451L78.5515 12.796H73.1605L72.1885 15.451C72.1405 15.589 72.0475 15.715 71.9095 15.829C71.7715 15.943 71.6005 16 71.3965 16H69.5065L74.6275 2.986H77.0935L82.2055 16ZM87.4855 9.178C87.9415 9.178 88.3375 9.121 88.6735 9.007C89.0155 8.893 89.2945 8.737 89.5105 8.539C89.7325 8.335 89.8975 8.095 90.0055 7.819C90.1135 7.543 90.1675 7.24 90.1675 6.91C90.1675 6.25 89.9485 5.743 89.5105 5.389C89.0785 5.035 88.4155 4.858 87.5215 4.858H85.9735V9.178H87.4855ZM93.7135 16H91.5265C91.1125 16 90.8125 15.838 90.6265 15.514L87.8905 11.347C87.7885 11.191 87.6745 11.08 87.5485 11.014C87.4285 10.948 87.2485 10.915 87.0085 10.915H85.9735V16H83.5525V2.986H87.5215C88.4035 2.986 89.1595 3.079 89.7895 3.265C90.4255 3.445 90.9445 3.7 91.3465 4.03C91.7545 4.36 92.0545 4.756 92.2465 5.218C92.4385 5.674 92.5345 6.178 92.5345 6.73C92.5345 7.168 92.4685 7.582 92.3365 7.972C92.2105 8.362 92.0245 8.716 91.7785 9.034C91.5385 9.352 91.2385 9.631 90.8785 9.871C90.5245 10.111 90.1195 10.3 89.6635 10.438C89.8195 10.528 89.9635 10.636 90.0955 10.762C90.2275 10.882 90.3475 11.026 90.4555 11.194L93.7135 16ZM97.5489 16H95.1189V2.986H97.5489V16ZM111.434 2.986V16H110.192C110 16 109.838 15.97 109.706 15.91C109.58 15.844 109.457 15.736 109.337 15.586L102.542 6.91C102.578 7.306 102.596 7.672 102.596 8.008V16H100.463V2.986H101.732C101.834 2.986 101.921 2.992 101.993 3.004C102.071 3.01 102.137 3.028 102.191 3.058C102.251 3.082 102.308 3.121 102.362 3.175C102.416 3.223 102.476 3.289 102.542 3.373L109.364 12.085C109.346 11.875 109.331 11.668 109.319 11.464C109.307 11.26 109.301 11.071 109.301 10.897V2.986H111.434ZM125.06 9.475V14.74C124.4 15.226 123.695 15.583 122.945 15.811C122.201 16.033 121.403 16.144 120.551 16.144C119.489 16.144 118.526 15.979 117.662 15.649C116.804 15.319 116.069 14.86 115.457 14.272C114.851 13.684 114.383 12.982 114.053 12.166C113.723 11.35 113.558 10.459 113.558 9.493C113.558 8.515 113.717 7.618 114.035 6.802C114.353 5.986 114.803 5.284 115.385 4.696C115.973 4.108 116.684 3.652 117.518 3.328C118.352 3.004 119.288 2.842 120.326 2.842C120.854 2.842 121.346 2.884 121.802 2.968C122.264 3.052 122.69 3.169 123.08 3.319C123.476 3.463 123.836 3.64 124.16 3.85C124.484 4.06 124.781 4.291 125.051 4.543L124.358 5.641C124.25 5.815 124.109 5.923 123.935 5.965C123.761 6.001 123.572 5.956 123.368 5.83C123.17 5.716 122.972 5.602 122.774 5.488C122.576 5.374 122.354 5.275 122.108 5.191C121.868 5.107 121.595 5.038 121.289 4.984C120.989 4.93 120.641 4.903 120.245 4.903C119.603 4.903 119.021 5.011 118.499 5.227C117.983 5.443 117.542 5.752 117.176 6.154C116.81 6.556 116.528 7.039 116.33 7.603C116.132 8.167 116.033 8.797 116.033 9.493C116.033 10.237 116.138 10.903 116.348 11.491C116.564 12.073 116.864 12.568 117.248 12.976C117.638 13.378 118.106 13.687 118.652 13.903C119.198 14.113 119.807 14.218 120.479 14.218C120.959 14.218 121.388 14.167 121.766 14.065C122.144 13.963 122.513 13.825 122.873 13.651V11.293H121.235C121.079 11.293 120.956 11.251 120.866 11.167C120.782 11.077 120.74 10.969 120.74 10.843V9.475H125.06Z" fill="white"/>
<path d="M50.42 24.986V38H47.99V32.312H41.879V38H39.449V24.986H41.879V30.584H47.99V24.986H50.42ZM65.7291 31.493C65.7291 32.447 65.5701 33.332 65.2521 34.148C64.9401 34.958 64.4961 35.66 63.9201 36.254C63.3441 36.848 62.6511 37.313 61.8411 37.649C61.0311 37.979 60.1311 38.144 59.1411 38.144C58.1571 38.144 57.2601 37.979 56.4501 37.649C55.6401 37.313 54.9441 36.848 54.3621 36.254C53.7861 35.66 53.3391 34.958 53.0211 34.148C52.7031 33.332 52.5441 32.447 52.5441 31.493C52.5441 30.539 52.7031 29.657 53.0211 28.847C53.3391 28.031 53.7861 27.326 54.3621 26.732C54.9441 26.138 55.6401 25.676 56.4501 25.346C57.2601 25.01 58.1571 24.842 59.1411 24.842C59.8011 24.842 60.4221 24.92 61.0041 25.076C61.5861 25.226 62.1201 25.442 62.6061 25.724C63.0921 26 63.5271 26.339 63.9111 26.741C64.3011 27.137 64.6311 27.581 64.9011 28.073C65.1711 28.565 65.3751 29.099 65.5131 29.675C65.6571 30.251 65.7291 30.857 65.7291 31.493ZM63.2541 31.493C63.2541 30.779 63.1581 30.14 62.9661 29.576C62.7741 29.006 62.5011 28.523 62.1471 28.127C61.7931 27.731 61.3611 27.428 60.8511 27.218C60.3471 27.008 59.7771 26.903 59.1411 26.903C58.5051 26.903 57.9321 27.008 57.4221 27.218C56.9181 27.428 56.4861 27.731 56.1261 28.127C55.7721 28.523 55.4991 29.006 55.3071 29.576C55.1151 30.14 55.0191 30.779 55.0191 31.493C55.0191 32.207 55.1151 32.849 55.3071 33.419C55.4991 33.983 55.7721 34.463 56.1261 34.859C56.4861 35.249 56.9181 35.549 57.4221 35.759C57.9321 35.969 58.5051 36.074 59.1411 36.074C59.7771 36.074 60.3471 35.969 60.8511 35.759C61.3611 35.549 61.7931 35.249 62.1471 34.859C62.5011 34.463 62.7741 33.983 62.9661 33.419C63.1581 32.849 63.2541 32.207 63.2541 31.493ZM73.0933 36.047C73.5613 36.047 73.9783 35.969 74.3443 35.813C74.7163 35.657 75.0283 35.438 75.2803 35.156C75.5323 34.874 75.7243 34.532 75.8563 34.13C75.9943 33.728 76.0633 33.278 76.0633 32.78V24.986H78.4843V32.78C78.4843 33.554 78.3583 34.271 78.1063 34.931C77.8603 35.585 77.5033 36.152 77.0353 36.632C76.5733 37.106 76.0093 37.478 75.3433 37.748C74.6773 38.012 73.9273 38.144 73.0933 38.144C72.2533 38.144 71.5003 38.012 70.8343 37.748C70.1683 37.478 69.6013 37.106 69.1333 36.632C68.6713 36.152 68.3143 35.585 68.0623 34.931C67.8163 34.271 67.6933 33.554 67.6933 32.78V24.986H70.1143V32.771C70.1143 33.269 70.1803 33.719 70.3123 34.121C70.4503 34.523 70.6453 34.868 70.8973 35.156C71.1553 35.438 71.4673 35.657 71.8333 35.813C72.2053 35.969 72.6253 36.047 73.0933 36.047ZM88.1446 27.353C88.0726 27.479 87.9946 27.572 87.9106 27.632C87.8326 27.686 87.7336 27.713 87.6136 27.713C87.4876 27.713 87.3496 27.668 87.1996 27.578C87.0556 27.482 86.8816 27.377 86.6776 27.263C86.4736 27.149 86.2336 27.047 85.9576 26.957C85.6876 26.861 85.3666 26.813 84.9946 26.813C84.6586 26.813 84.3646 26.855 84.1126 26.939C83.8606 27.017 83.6476 27.128 83.4736 27.272C83.3056 27.416 83.1796 27.59 83.0956 27.794C83.0116 27.992 82.9696 28.211 82.9696 28.451C82.9696 28.757 83.0536 29.012 83.2216 29.216C83.3956 29.42 83.6236 29.594 83.9056 29.738C84.1876 29.882 84.5086 30.011 84.8686 30.125C85.2286 30.239 85.5976 30.362 85.9756 30.494C86.3536 30.62 86.7226 30.77 87.0826 30.944C87.4426 31.112 87.7636 31.328 88.0456 31.592C88.3276 31.85 88.5526 32.168 88.7206 32.546C88.8946 32.924 88.9816 33.383 88.9816 33.923C88.9816 34.511 88.8796 35.063 88.6756 35.579C88.4776 36.089 88.1836 36.536 87.7936 36.92C87.4096 37.298 86.9386 37.598 86.3806 37.82C85.8226 38.036 85.1836 38.144 84.4636 38.144C84.0496 38.144 83.6416 38.102 83.2396 38.018C82.8376 37.94 82.4506 37.826 82.0786 37.676C81.7126 37.526 81.3676 37.346 81.0436 37.136C80.7196 36.926 80.4316 36.692 80.1796 36.434L80.8906 35.273C80.9506 35.189 81.0286 35.12 81.1246 35.066C81.2206 35.006 81.3226 34.976 81.4306 34.976C81.5806 34.976 81.7426 35.039 81.9166 35.165C82.0906 35.285 82.2976 35.42 82.5376 35.57C82.7776 35.72 83.0566 35.858 83.3746 35.984C83.6986 36.104 84.0856 36.164 84.5356 36.164C85.2256 36.164 85.7596 36.002 86.1376 35.678C86.5156 35.348 86.7046 34.877 86.7046 34.265C86.7046 33.923 86.6176 33.644 86.4436 33.428C86.2756 33.212 86.0506 33.032 85.7686 32.888C85.4866 32.738 85.1656 32.612 84.8056 32.51C84.4456 32.408 84.0796 32.297 83.7076 32.177C83.3356 32.057 82.9696 31.913 82.6096 31.745C82.2496 31.577 81.9286 31.358 81.6466 31.088C81.3646 30.818 81.1366 30.482 80.9626 30.08C80.7946 29.672 80.7106 29.171 80.7106 28.577C80.7106 28.103 80.8036 27.641 80.9896 27.191C81.1816 26.741 81.4576 26.342 81.8176 25.994C82.1776 25.646 82.6216 25.367 83.1496 25.157C83.6776 24.947 84.2836 24.842 84.9676 24.842C85.7356 24.842 86.4436 24.962 87.0916 25.202C87.7396 25.442 88.2916 25.778 88.7476 26.21L88.1446 27.353ZM93.5235 26.912V30.521H98.0775V32.384H93.5235V36.065H99.3015V38H91.0935V24.986H99.3015V26.912H93.5235Z" fill="white"/>
</svg>
